<?xml version="1.0" encoding="UTF-8" standalone="no"?>
<!-- Created with Inkscape (http://www.inkscape.org/) -->

<svg
   xmlns:dc="http://purl.org/dc/elements/1.1/"
   xmlns:cc="http://creativecommons.org/ns#"
   xmlns:rdf="http://www.w3.org/1999/02/22-rdf-syntax-ns#"
   xmlns:svg="http://www.w3.org/2000/svg"
   xmlns="http://www.w3.org/2000/svg"
   xmlns:sodipodi="http://sodipodi.sourceforge.net/DTD/sodipodi-0.dtd"
   xmlns:inkscape="http://www.inkscape.org/namespaces/inkscape"
   id="svg2"
   version="1.1"
   inkscape:version="0.48.5 r10040"
   width="36"
   height="36"
   sodipodi:docname="db.svg">
  <metadata
     id="metadata8">
    <rdf:RDF>
      <cc:Work
         rdf:about="">
        <dc:format>image/svg+xml</dc:format>
        <dc:type
           rdf:resource="http://purl.org/dc/dcmitype/StillImage" />
        <dc:title />
      </cc:Work>
    </rdf:RDF>
  </metadata>
  <defs
     id="defs6" />
  <sodipodi:namedview
     pagecolor="#ffffff"
     bordercolor="#666666"
     borderopacity="1"
     objecttolerance="10"
     gridtolerance="10"
     guidetolerance="10"
     inkscape:pageopacity="0"
     inkscape:pageshadow="2"
     inkscape:window-width="739"
     inkscape:window-height="709"
     id="namedview4"
     showgrid="false"
     inkscape:zoom="2.8284271"
     inkscape:cx="73.846223"
     inkscape:cy="33.112871"
     inkscape:window-x="0"
     inkscape:window-y="29"
     inkscape:window-maximized="0"
     inkscape:current-layer="svg2" />
  <path
     style="fill:#ffffff;fill-opacity:1;stroke:#000000;stroke-width:0.125;stroke-opacity:1"
     d="M 13.221097,3.0071521 C 9.965024,3.6336757 6.6746256,5.7355467 5.7523474,9.0774646 4.7699231,13.17913 6.0925853,17.426026 7.8251667,21.136806 c 0.3467074,0.649891 0.6085297,1.449094 1.0717119,1.99144 1.0214173,-0.388776 1.9354894,-1.174121 2.9023434,-1.726563 0.407118,-0.353198 1.104424,-0.548197 1.351563,-1.011718 -0.806505,-1.53958 -1.896118,-2.941669 -2.488281,-4.59375 -1.3841788,-3.174394 -1.208933,-7.0956121 0.75,-9.9765629 0.649396,-1.0380025 1.603408,-1.8797249 2.363281,-2.8203125 -0.103421,-0.1895569 -0.39226,0.023518 -0.554688,0.00781 z"
     id="path3047"
     inkscape:connector-curvature="0" />
  <path
     style="fill:none;stroke:#999999;stroke-opacity:1"
     d="m 13.118349,20.706828 c 0,0 -8.9956496,-10.620938 1.08206,-18.0810611"
     id="path2993"
     inkscape:connector-curvature="0" />
  <path
     style="fill:none;stroke:#000000;stroke-opacity:1"
     d="M 13.60892,20.188807 C 4.6868893,8.3304124 15.52885,2.3447465 15.52885,2.3447465 c 0,0 -18.013466,0.1129371 -6.945631,21.2321735"
     id="path2991"
     inkscape:connector-curvature="0" />
  <path
     style="fill:none;stroke:#000000;stroke-opacity:1"
     d="m 4.3922221,26.576687 2.5155454,2.515546 11.1709735,-6.449565 0,-1.336647 -2.115895,-2.115895 z"
     id="path2987"
     inkscape:connector-curvature="0" />
  <path
     style="fill:none;stroke:#000000;stroke-opacity:1"
     d="m 10.501404,27.295414 1.477384,2.196111 c 0,0 -1.517314,2.795051 1.237808,4.032859 2.755121,1.237808 3.873141,-2.315899 3.873141,-2.315899 0,0 0.199646,-2.675263 -1.836747,-2.874909 l -1.637101,-2.755121"
     id="path2997"
     inkscape:connector-curvature="0" />
  <path
     style="fill:#ffffff;fill-opacity:1;stroke:#000000;stroke-width:0.125;stroke-opacity:1"
     d="m 10.611722,23.038402 c -1.7987708,1.177386 -3.6817575,2.278281 -5.4101559,3.527344 0.2789441,0.791583 1.112357,1.318873 1.6953125,1.90625 0.4963954,0.104524 0.9720094,-0.513552 1.4553311,-0.665054 3.1170633,-1.76328 6.2110113,-3.566972 9.3142003,-5.354477 0.386832,-1.208339 -0.999516,-1.893187 -1.633259,-2.68429 -0.637561,-0.03613 -1.242204,0.739209 -1.865995,1.005029 -1.185144,0.755066 -2.370289,1.510132 -3.555434,2.265198 z"
     id="path3053"
     inkscape:connector-curvature="0" />
  <path
     style="fill:#333333;fill-opacity:1;stroke:#000000;stroke-width:0.125;stroke-opacity:1"
     d="m 13.213285,25.952465 c -0.744636,0.367237 -1.613916,0.702333 -2.140625,1.363281 0.266938,0.772889 0.915515,1.414719 1.324219,2.136719 -0.579522,1.109607 -0.684124,2.842916 0.605468,3.492187 0.876328,0.627268 2.220876,0.611209 2.871094,-0.34375 0.923889,-0.900387 1.158846,-2.566327 0.164063,-3.492187 -0.466855,-0.367595 -1.152188,-0.379671 -1.363282,-1.042969 -0.511405,-0.658256 -0.799034,-1.622277 -1.460937,-2.113281 z"
     id="path3055"
     inkscape:connector-curvature="0" />
  <path
     style="fill:#ffffff;fill-opacity:1;stroke:#000000;stroke-width:0.125;stroke-opacity:1"
     d="m 23.788354,2.9646987 c 3.256073,0.626524 6.546471,2.728395 7.468749,6.070313 0.982425,4.1016663 -0.340238,8.3485623 -2.072819,12.0593423 -0.346707,0.649891 -0.60853,1.449094 -1.071712,1.99144 -1.021417,-0.388776 -1.935489,-1.174121 -2.902343,-1.726563 -0.407118,-0.353198 -1.104424,-0.548197 -1.351563,-1.011718 0.806505,-1.53958 1.896118,-2.941669 2.488281,-4.59375 1.384178,-3.174394 1.208933,-7.0956133 -0.75,-9.9765643 -0.649396,-1.038002 -1.603408,-1.879725 -2.363281,-2.820312 0.103421,-0.189557 0.39226,0.02352 0.554688,0.0078 z"
     id="path3047-8"
     inkscape:connector-curvature="0" />
  <path
     style="fill:none;stroke:#999999;stroke-opacity:1"
     d="m 23.891102,20.664376 c 0,0 8.995649,-10.620939 -1.08206,-18.0810623"
     id="path2993-4"
     inkscape:connector-curvature="0" />
  <path
     style="fill:none;stroke:#000000;stroke-opacity:1"
     d="m 23.400531,20.146355 c 8.92203,-11.8583953 -1.91993,-17.8440613 -1.91993,-17.8440613 0,0 18.013466,0.112937 6.945631,21.2321743"
     id="path2991-4"
     inkscape:connector-curvature="0" />
  <path
     style="fill:none;stroke:#000000;stroke-opacity:1"
     d="m 32.617229,26.534235 -2.515546,2.515546 -11.170973,-6.449565 0,-1.336647 2.115895,-2.115895 z"
     id="path2987-4"
     inkscape:connector-curvature="0" />
  <path
     style="fill:none;stroke:#000000;stroke-opacity:1"
     d="m 26.508047,27.252962 -1.477384,2.196111 c 0,0 1.517314,2.795051 -1.237808,4.032859 -2.755121,1.237808 -3.873141,-2.315899 -3.873141,-2.315899 0,0 -0.199646,-2.675263 1.836747,-2.874909 l 1.637101,-2.755121"
     id="path2997-1"
     inkscape:connector-curvature="0" />
  <path
     style="fill:#ffffff;fill-opacity:1;stroke:#000000;stroke-width:0.125;stroke-opacity:1"
     d="m 26.397729,22.99595 c 1.79877,1.177386 3.681757,2.278281 5.410156,3.527344 -0.278945,0.791583 -1.112357,1.318873 -1.695313,1.90625 -0.496395,0.104524 -0.972009,-0.513552 -1.455331,-0.665054 -3.117063,-1.76328 -6.211011,-3.566972 -9.3142,-5.354477 -0.386832,-1.208339 0.999516,-1.893187 1.633259,-2.68429 0.637561,-0.03613 1.242204,0.739209 1.865995,1.005029 1.185144,0.755066 2.370289,1.510132 3.555434,2.265198 z"
     id="path3053-3"
     inkscape:connector-curvature="0" />
  <path
     style="fill:#333333;fill-opacity:1;stroke:#000000;stroke-width:0.125;stroke-opacity:1"
     d="m 23.796166,25.910013 c 0.744636,0.367237 1.613916,0.702333 2.140625,1.363281 -0.266938,0.772889 -0.915515,1.414719 -1.324219,2.136719 0.579522,1.109607 0.684124,2.842916 -0.605468,3.492187 -0.876328,0.627268 -2.220876,0.611209 -2.871094,-0.34375 -0.923889,-0.900387 -1.158846,-2.566327 -0.164063,-3.492187 0.466855,-0.367595 1.152188,-0.379671 1.363282,-1.042969 0.511405,-0.658256 0.799034,-1.622277 1.460937,-2.113281 z"
     id="path3055-2"
     inkscape:connector-curvature="0" />
</svg>
