<?xml version="1.0" encoding="UTF-8" standalone="no"?>
<!-- Created with Inkscape (http://www.inkscape.org/) -->

<svg
   xmlns:dc="http://purl.org/dc/elements/1.1/"
   xmlns:cc="http://creativecommons.org/ns#"
   xmlns:rdf="http://www.w3.org/1999/02/22-rdf-syntax-ns#"
   xmlns:svg="http://www.w3.org/2000/svg"
   xmlns="http://www.w3.org/2000/svg"
   xmlns:sodipodi="http://sodipodi.sourceforge.net/DTD/sodipodi-0.dtd"
   xmlns:inkscape="http://www.inkscape.org/namespaces/inkscape"
   width="32px"
   height="32px"
   id="svg3072"
   version="1.1"
   inkscape:version="0.48.5 r10040"
   sodipodi:docname="gl.svg">
  <defs
     id="defs3074" />
  <sodipodi:namedview
     id="base"
     pagecolor="#ffffff"
     bordercolor="#666666"
     borderopacity="1.0"
     inkscape:pageopacity="0.0"
     inkscape:pageshadow="2"
     inkscape:zoom="10.805476"
     inkscape:cx="18.170886"
     inkscape:cy="17.241734"
     inkscape:current-layer="layer1"
     showgrid="true"
     inkscape:grid-bbox="true"
     inkscape:document-units="px"
     inkscape:window-width="673"
     inkscape:window-height="709"
     inkscape:window-x="0"
     inkscape:window-y="29"
     inkscape:window-maximized="0" />
  <metadata
     id="metadata3077">
    <rdf:RDF>
      <cc:Work
         rdf:about="">
        <dc:format>image/svg+xml</dc:format>
        <dc:type
           rdf:resource="http://purl.org/dc/dcmitype/StillImage" />
        <dc:title />
      </cc:Work>
    </rdf:RDF>
  </metadata>
  <g
     id="layer1"
     inkscape:label="Layer 1"
     inkscape:groupmode="layer">
    <path
       style="fill:#ffffff;fill-opacity:1;stroke:#ffffff;stroke-width:0.03271984;stroke-opacity:1"
       d="m 18.818352,6.6920133 c -0.488076,0.7511978 -0.967916,1.5083583 -1.452965,2.2617586 -0.650805,0.019257 -1.309126,0.00436 -1.955294,0.044904 -0.143814,0.1204584 -0.03605,0.3715813 -0.07193,0.5440377 0.0044,0.4456624 -0.02307,0.8973694 0.0023,1.3393124 0.371793,0.455415 0.799645,0.87593 1.192662,1.318167 0.0214,0.23221 -0.03555,0.480048 0.03272,0.702454 0.335422,0.06884 0.696582,0.01001 1.041922,0.02965 0.06166,3.079455 0.02615,6.16216 0.04884,9.240331 0.475366,0.974668 1.051962,1.984095 2.009447,2.557214 0.557629,0.300674 1.213579,0.172311 1.819019,0.207634 0.726601,-0.0052 1.456344,0.01583 2.180981,-0.0072 0.893493,-0.419542 1.83893,-0.915883 2.351738,-1.796523 0.283188,-0.476803 0.169179,-1.053253 0.202242,-1.579752 0.01092,-2.873873 0.0028,-5.747789 0.0053,-8.621679 0.401107,-0.0087 0.809187,0.01717 1.206033,-0.01268 0.146805,-0.118872 0.03516,-0.372759 0.07004,-0.545605 0,-0.481254 0,-0.962508 0,-1.443762 0.428626,-0.122733 0.873504,-0.212179 1.292675,-0.353452 0.109166,-0.151517 0.01978,-0.384807 0.04884,-0.567816 -0.01867,-0.30191 0.03865,-0.6191406 -0.02965,-0.9110437 -0.338296,-0.070555 -0.702702,-0.016207 -1.051085,-0.038513 -0.335391,-0.00289 -0.670783,-0.00567 -1.006174,-0.00852 -0.540911,-0.7842921 -1.057326,-1.5935053 -1.613314,-2.3624279 -0.287127,-0.062065 -0.60678,-0.0079 -0.906114,-0.02612 -1.782549,0 -3.565098,0 -5.347648,0 -0.02352,0.00988 -0.04704,0.019768 -0.07055,0.029652 z m 0.795501,3.9498977 c 0.157961,0.04858 0.53218,-0.119092 0.488752,0.130879 0,0.609407 0,1.218814 0,1.828221 -0.325834,0 -0.65167,0 -0.977505,0 0,-0.653033 0,-1.306067 0,-1.9591 0.162918,0 0.325835,0 0.488753,0 z m 4.793456,0 c 0.151202,0.04989 0.511714,-0.109532 0.505112,0.09816 0,0.620314 0,1.240628 0,1.860941 -0.336741,0 -0.673483,0 -1.010225,0 0,-0.653033 0,-1.306067 0,-1.9591 0.168371,0 0.336742,0 0.505113,0 z m -4.304704,6.884458 c 0,0.332311 0,0.664622 0,0.996933 -0.336741,0 -0.673483,0 -1.010225,0 0.0057,-0.658824 0.01077,-1.317651 0.01534,-1.976483 0.331621,-0.0056 0.66325,-0.01073 0.994887,-0.01534 0,0.33163 0,0.663259 0,0.994888 z m 4.321064,-0.864008 c 0.157961,0.04858 0.532179,-0.119092 0.488752,0.130879 0,0.598501 0,1.197001 0,1.795501 -0.325835,0 -0.65167,0 -0.977505,0 0,-0.642127 0,-1.284253 0,-1.92638 0.162918,0 0.325835,0 0.488753,0 z"
       id="path3008"
       inkscape:connector-curvature="0" />
    <path
       style="fill:#666666;fill-opacity:1;stroke:#666666;stroke-width:0.0625;stroke-opacity:1"
       d="m 4.4364912,13.891875 c -0.050427,1.264463 -0.00694,2.544167 -0.021484,3.814453 0.2337858,0.233232 0.7119361,0.03313 1.0371094,0.09961 2.9383147,0.0032 5.8770524,3.72e-4 8.8144524,-0.08203 0.229405,-0.239273 0.03196,-0.711082 0.09766,-1.037109 -0.02371,-0.933624 0.04745,-1.887611 -0.03516,-2.808594 -2.514498,-0.05021 -5.0441403,-0.0071 -7.5644524,-0.02148 -0.7728048,0.02309 -1.5682327,-0.04641 -2.328125,0.03516 z"
       id="path3135"
       inkscape:connector-curvature="0" />
    <rect
       style="fill:#1a1a1a;fill-opacity:1;stroke:#1a1a1a;stroke-width:0.6902293;stroke-opacity:1"
       id="rect3143-2"
       width="2.0098822"
       height="2.05"
       x="10.587534"
       y="13.938146" />
    <path
       style="fill:#666666;fill-opacity:1;stroke:#666666;stroke-opacity:1"
       d="m 21.950853,24.991595 0,-9.917554 -4.562075,0 0.06612,7.305932 c 0,0 0.595054,0.925638 0.628112,1.123989 0.03306,0.198351 0.958697,1.223165 0.958697,1.223165 l 1.719043,0.595053 z"
       id="path3129"
       inkscape:connector-curvature="0" />
    <path
       style="fill:#666666;fill-opacity:1;stroke:#666666;stroke-opacity:1"
       d="m 22.438466,14.569899 0,-8.0910716 2.55377,-0.066117 0.561995,0.8595213 0.991756,1.2892821 1.32234,0.2314096 0.958697,0.1652925 c 0,0 0.09918,0.5950533 0.09918,0.8264629 0,0.2314092 0,1.0909312 0,1.0909312 l -1.223165,0.165292 -0.06612,1.487633 0.03306,0.396703 -1.289282,0.06612 -0.165293,1.752101 -3.867846,0 z"
       id="path3131"
       inkscape:connector-curvature="0" />
    <path
       style="fill:none;stroke:#000000;stroke-width:1.20130432;stroke-opacity:1"
       d="m 17.135938,13.615933 0,8.622696 c 0,0 1.266271,3.135525 3.195824,3.195818 l 3.37672,0 c 0,0 2.954631,-1.025073 3.014929,-3.014925 l 0,-8.984494 1.26627,0 0,-2.110451 1.343229,-0.359911 0,-2.413817 -2.308006,0 -1.628062,-2.4119427 -6.813739,0 -1.507464,2.3516373 -2.231047,0 0,2.5928474 1.205971,1.326564 0,1.025073 1.085375,0 z"
       id="path3003"
       inkscape:connector-curvature="0" />
    <path
       style="fill:none;stroke:#000000;stroke-width:1.20130432;stroke-opacity:1"
       d="m 7.6399981,22.752523 0,5.542878 c 0,0 4.9459549,0.341111 4.9459549,0 0,-0.341098 0,-5.500231 0,-5.500231 z"
       id="path2991"
       inkscape:connector-curvature="0" />
    <path
       style="fill:none;stroke:#000000;stroke-width:1.33155179;stroke-opacity:1"
       d="m 3.8878947,22.831191 c 0,0 12.5993923,-0.288114 12.3648863,0 -0.234507,0.288115 -3.688147,-4.531254 -3.688147,-4.531254 l -5.6068362,0 z"
       id="path2993"
       inkscape:connector-curvature="0" />
    <rect
       style="fill:#1a1a1a;fill-opacity:1;stroke:#1a1a1a;stroke-width:0.61958802;stroke-opacity:1"
       id="rect3143"
       width="1.6195332"
       height="2.05"
       x="6.153141"
       y="13.991529" />
    <path
       style="fill:none;stroke:#000000;stroke-width:1.20130432;stroke-opacity:1"
       d="m 7.0057755,18.319218 -3.1053776,0 0,-4.944483 10.9441941,0 0,4.854037 z"
       id="path2995"
       inkscape:connector-curvature="0" />
    <path
       style="fill:none;stroke:#000000;stroke-width:1.20130432;stroke-opacity:1"
       d="m 7.5484623,13.254136 0,-5.7886654 4.8238867,0 0,5.8489704 z"
       id="path2997"
       inkscape:connector-curvature="0" />
    <path
       style="fill:none;stroke:#000000;stroke-width:1.20130432;stroke-opacity:1"
       d="m 7.5484623,10.962792 -3.5576158,0 0,-5.9695576 2.4119427,-2.4119427 1.2662708,0 z"
       id="path2999"
       inkscape:connector-curvature="0" />
    <path
       style="fill:none;stroke:#000000;stroke-width:1.20130432;stroke-opacity:1"
       d="m 7.5786114,4.9027882 6.0298596,0 0,2.4722362 -5.9997104,0 z"
       id="path3001"
       inkscape:connector-curvature="0" />
    <path
       style="fill:none;stroke:#000000;stroke-width:1.20130432;stroke-opacity:1"
       d="m 19.608179,10.540701 0,2.170746"
       id="path3009"
       inkscape:connector-curvature="0" />
    <path
       style="fill:none;stroke:#000000;stroke-width:1.20130432;stroke-opacity:1"
       d="m 24.401916,10.540701 0,2.170746"
       id="path3009-9"
       inkscape:connector-curvature="0" />
    <path
       style="fill:none;stroke:#000000;stroke-width:1.20130432;stroke-opacity:1"
       d="m 24.432065,16.540411 0,2.170745"
       id="path3009-3"
       inkscape:connector-curvature="0" />
    <path
       style="fill:none;stroke:#000000;stroke-width:1.20130432;stroke-opacity:1"
       d="m 19.608179,16.449965 0,2.170744"
       id="path3009-38"
       inkscape:connector-curvature="0" />
    <path
       style="fill:#666666;fill-opacity:1;stroke:#666666;stroke-width:0.0625;stroke-opacity:1"
       d="m 8.7861006,23.239531 c -0.282069,0.0145 -0.7944997,-0.08374 -0.6523438,0.373047 0.01707,1.39217 -0.034159,2.798999 0.025648,4.181995 0.8699065,0.15281 1.8143044,0.09374 2.7145792,0.1263 0.402727,-0.02173 0.827075,0.05709 1.216804,-0.02509 0.05487,-1.487804 0.0076,-2.993606 0.02344,-4.488281 -0.2317,-0.234954 -0.709346,-0.05213 -1.032794,-0.127319 -0.764901,-0.02115 -1.5300179,-0.04956 -2.2953312,-0.04065 z"
       id="path3133"
       inkscape:connector-curvature="0" />
    <path
       style="fill:#666666;fill-opacity:1;stroke:#666666;stroke-width:0.0625;stroke-opacity:1"
       d="m 8.1415693,8.0168752 c -0.1710882,1.3007787 -0.077418,2.6295428 -0.091216,3.9413888 0.065116,0.249488 -0.1077375,0.648542 0.1322321,0.810564 1.2097318,0.04805 2.4371586,0.06008 3.6390256,0.01146 0.101723,-0.572555 0.01255,-1.222515 0.04261,-1.823962 -0.02322,-0.9819054 0.04659,-1.9837795 -0.03516,-2.9531247 -1.196109,-0.050392 -2.4074636,-0.00684 -3.6093743,-0.021484 l -0.056995,0.025648 -0.02113,0.00951 z"
       id="path3137"
       inkscape:connector-curvature="0" />
    <path
       style="fill:#666666;fill-opacity:1;stroke:#1a1a1a;stroke-width:0.06250000000000000;stroke-opacity:1"
       d="m 8.1239912,5.4543752 c -0.029403,0.4547345 -0.051501,0.9444946 0.013672,1.3925781 1.6186537,0.050281 3.2524938,0.00698 4.8769528,0.021484 0.233232,-0.2337857 0.03313,-0.7119361 0.09961,-1.0371094 0.165355,-0.5351365 -0.390599,-0.4126593 -0.72461,-0.4121093 -1.412955,0.01729 -2.8407157,-0.034396 -4.2444948,0.025648 l -0.02113,0.00951 z"
       id="path3141"
       inkscape:connector-curvature="0" />
    <path
       style="fill:#ffffff;fill-opacity:1;stroke:#ffffff;stroke-width:0.09254567;stroke-opacity:1"
       d="m 7.2138742,18.892494 c -0.688597,1.060725 -1.4627437,2.098287 -2.0967378,3.175473 0.2787299,0.267271 0.8002659,0.06872 1.1597129,0.150387 2.7347527,0.0026 5.4853427,0.02142 8.2105367,-0.07519 0.148262,-0.360003 -0.349464,-0.68327 -0.482973,-0.994866 -0.588064,-0.765943 -1.132552,-1.596492 -1.77572,-2.302074 -1.666567,0.03114 -3.3685073,-0.06186 -5.0148188,0.04627 z"
       id="path3002"
       inkscape:connector-curvature="0" />
    <path
       style="fill:#ffffff;fill-opacity:1;stroke:#ffffff;stroke-width:0.09254567;stroke-opacity:1"
       d="M 6.8263392,3.0382634 C 5.918248,3.5403164 5.2996841,4.4524615 4.5242656,5.1321092 4.450091,6.8544302 4.5136966,8.606822 4.4924531,10.340695 c 0.42473,0.232928 1.0789287,0.03799 1.5935208,0.101222 0.3331365,-0.02843 1.0490844,0.104475 0.970567,-0.4510445 C 7.0933547,7.7515874 7.1926257,5.5014616 7.0837319,3.2667355 7.063057,3.138595 6.9725073,3.0129414 6.8263392,3.0382634 z"
       id="path3004"
       inkscape:connector-curvature="0" />
  </g>
</svg>
