<?xml version="1.0" encoding="UTF-8" standalone="no"?>
<!-- Created with Inkscape (http://www.inkscape.org/) -->

<svg
   xmlns:dc="http://purl.org/dc/elements/1.1/"
   xmlns:cc="http://creativecommons.org/ns#"
   xmlns:rdf="http://www.w3.org/1999/02/22-rdf-syntax-ns#"
   xmlns:svg="http://www.w3.org/2000/svg"
   xmlns="http://www.w3.org/2000/svg"
   xmlns:sodipodi="http://sodipodi.sourceforge.net/DTD/sodipodi-0.dtd"
   xmlns:inkscape="http://www.inkscape.org/namespaces/inkscape"
   version="1.1"
   width="36"
   height="36"
   id="svg2"
   inkscape:version="0.48.5 r10040"
   sodipodi:docname="great_sword.svg">
  <sodipodi:namedview
     pagecolor="#ffffff"
     bordercolor="#666666"
     borderopacity="1"
     objecttolerance="10"
     gridtolerance="10"
     guidetolerance="10"
     inkscape:pageopacity="0"
     inkscape:pageshadow="2"
     inkscape:window-width="673"
     inkscape:window-height="709"
     id="namedview18"
     showgrid="false"
     inkscape:zoom="8.8544869"
     inkscape:cx="11.928591"
     inkscape:cy="14.916501"
     inkscape:window-x="0"
     inkscape:window-y="29"
     inkscape:window-maximized="0"
     inkscape:current-layer="svg2" />
  <metadata
     id="metadata8">
    <rdf:RDF>
      <cc:Work
         rdf:about="">
        <dc:format>image/svg+xml</dc:format>
        <dc:type
           rdf:resource="http://purl.org/dc/dcmitype/StillImage" />
        <dc:title />
      </cc:Work>
    </rdf:RDF>
  </metadata>
  <defs
     id="defs6" />
  <path
     style="fill:#ffffff;fill-opacity:1;stroke:#000000;stroke-width:0.15254237"
     d="m 18.178593,3.9109088 c -2.956319,0.022501 -5.643392,1.8102831 -7.575026,3.9188253 -1.3451949,1.5595042 -2.4394554,3.4511899 -2.8598256,5.4625309 0,5.804554 0,11.60911 0,17.413665 0.7701915,-0.01872 1.5516979,-0.799546 2.3276096,-1.094453 1.514169,-0.855545 3.12844,-1.603367 4.584467,-2.518894 0,-4.706569 0,-9.413136 0,-14.119704 C 16.93085,9.5294885 19.878986,6.6066408 23.174356,4.1349554 22.712355,3.7075027 21.433024,4.058947 20.671967,3.9229806 19.840932,3.9137913 19.009593,3.8862972 18.178593,3.9109088 z"
     id="path3014"
     inkscape:connector-curvature="0" />
  <path
     style="fill:none;stroke:#999999;stroke-opacity:1"
     d="m 8.0457523,31.068732 0,-17.968181 c 0,0 3.0220827,-11.0099129 15.4451627,-8.849991"
     id="path3004"
     inkscape:connector-curvature="0" />
  <path
     d="m 7.3220339,31.5 0,-18.228814 c 0,0 1.5254237,-7.7796606 9.7627121,-9.7627114 l 11.745762,0 c 0,0 -4.881355,5.6440678 -6.254237,8.3135594 l 0,11.516949 z"
     id="path2989"
     style="fill:none;stroke:#000000" />
  <path
     d="m 16.398305,27.152542 c 0,0 1.220339,5.796611 5.186441,6.711865 l 7.016949,0 0,-5.415254 -5.186441,0 c 0,0 -0.991525,0.152542 -0.991525,-1.754238 l 0,-3.20339"
     id="path2991"
     style="fill:none;stroke:#000000" />
  <path
     d="m 24.40678,3.8135593 c 0,0 -5.79661,3.4322034 -9.381356,9.3050847 l 0,13.881356"
     id="path2993"
     style="fill:none;stroke:#000000" />
  <path
     d="m 26.313559,28.754237 0,4.576271"
     id="path2997"
     style="fill:none;stroke:#000000" />
  <path
     d="m 23.491525,28.830508 0,4.652543"
     id="path2999"
     style="fill:none;stroke:#000000" />
  <path
     d="m 22.652542,28.067797 -4.118644,3.203389"
     id="path3001"
     style="fill:none;stroke:#000000" />
  <path
     d="m 22.347458,25.550847 -5.262712,2.822034"
     id="path3003"
     style="fill:none;stroke:#000000" />
  <path
     d="m 20.817703,14.373319 a 1.6449221,1.6449221 0 1 1 -3.289844,0 1.6449221,1.6449221 0 1 1 3.289844,0 z"
     id="path3009"
     style="fill:none;stroke:#000000" />
  <path
     d="m 20.817703,14.373319 a 1.6449221,1.6449221 0 1 1 -3.289844,0 1.6449221,1.6449221 0 1 1 3.289844,0 z"
     transform="translate(-0.18876162,5.4740853)"
     id="path3009-9"
     style="fill:none;stroke:#000000" />
  <path
     d="m 25.335572,3.8155834 c -0.31574,0.04011 -0.861514,-0.1041188 -0.962924,0.3074682 -1.391307,1.0044191 -2.79762,2.0431112 -4.078017,3.2086743 -1.940063,1.7238113 -3.653202,3.7233191 -5.010927,5.9405631 -0.0097,4.336414 -0.04321,8.680997 0.03889,13.01946 -0.0684,0.283595 0.215744,0.550708 0.464192,0.328817 2.15568,-1.103444 4.278649,-2.265922 6.4169,-3.4035 0.242072,-0.396416 0.03731,-0.942711 0.104872,-1.396716 0,-3.368644 0,-6.737288 0,-10.105932 1.582272,-2.7202179 3.621542,-5.136724 5.605933,-7.5770656 0.139734,-0.5436992 -0.688657,-0.2557711 -0.993909,-0.326536 -0.528333,0.00171 -1.056728,-0.00427 -1.585011,0.00477 z m -6.180349,8.6472456 c 1.278313,-0.0825 2.292231,1.37704 1.809057,2.550318 -0.352471,1.116348 -1.845659,1.662038 -2.814884,0.974841 -1.040457,-0.626125 -1.192218,-2.240517 -0.257415,-3.019862 0.341976,-0.31773 0.79968,-0.494187 1.263242,-0.505297 z m -0.295551,5.517744 c 0.613478,-0.06569 1.243912,0.145633 1.604078,0.669756 0.841686,0.935662 0.373616,2.662999 -0.8509,2.991261 -0.701615,0.187216 -1.497592,0.09137 -2.004502,-0.464778 -0.801836,-0.793253 -0.657864,-2.274457 0.271716,-2.910222 0.274734,-0.226608 0.633649,-0.278694 0.979608,-0.286017 z"
     id="path3033"
     style="fill:#666666;fill-opacity:1;stroke:#000000;stroke-width:0.07627118" />
  <path
     d="m 21.853316,26.165424 c -1.531652,0.747708 -3.030203,1.585366 -4.497617,2.454979 -0.220667,0.379314 0.20171,0.789939 0.290784,1.160752 0.234635,0.364947 0.330649,0.987145 0.78893,1.105933 0.54785,-0.227214 0.987683,-0.720081 1.484507,-1.055563 0.769203,-0.644282 1.653999,-1.178337 2.309985,-1.933315 0.07,-0.378753 -0.09664,-0.780104 -0.07389,-1.175052 -0.03918,-0.220573 0.01701,-0.582429 -0.302701,-0.557734 z"
     id="path3035"
     style="fill:#666666;fill-opacity:1;stroke:#000000;stroke-width:0.07627118" />
  <path
     d="m 26.313559,31.042372 0.03216,2.732938"
     id="path3039"
     style="fill:none;stroke:#000000;stroke-width:1px;stroke-linecap:butt;stroke-linejoin:miter;stroke-opacity:1" />
  <path
     d="m 23.90945,28.756973 c -0.122395,0.05716 -0.126323,0.200617 -0.117976,0.317271 0.0019,1.433487 -0.0038,2.867781 0.0028,4.300764 0.0061,0.138377 0.153877,0.208481 0.278197,0.186958 0.580546,-0.0042 1.161617,0.0094 1.741831,-0.0093 0.147831,0.0054 0.271889,-0.156648 0.206879,-0.29494 -0.01848,-1.442765 -0.0025,-2.888454 -0.01211,-4.331523 -0.0061,-0.138376 -0.153877,-0.20848 -0.278197,-0.186957 -0.58406,0.0019 -1.168927,-0.0038 -1.752484,0.0028 -0.02299,0.005 -0.04599,0.0099 -0.06898,0.01486 z"
     id="path3041"
     style="fill:#666666;fill-opacity:1;stroke:#000000;stroke-width:0.01348297" />
  <path
     style="fill:#ffffff;fill-opacity:1;stroke:#000000;stroke-width:0.10786375"
     d="m 18.891735,18.589605 c -0.904352,0.107119 -1.494481,1.277858 -0.883134,2.022445 0.57461,0.817712 1.949155,0.50212 2.164016,-0.45505 0.291012,-0.804864 -0.49748,-1.577141 -1.280882,-1.567395 z"
     id="path3016"
     inkscape:connector-curvature="0" />
  <path
     style="fill:#ffffff;fill-opacity:1;stroke:#000000;stroke-width:0.10786375"
     d="m 19.063643,13.118891 c -0.945072,0.09385 -1.598738,1.471483 -0.731451,2.116826 0.772846,1.014595 2.529807,-0.150085 2.029187,-1.257287 -0.221652,-0.491926 -0.747831,-0.877959 -1.297736,-0.859539 z"
     id="path3018"
     inkscape:connector-curvature="0" />
  <path
     style="fill:#ffffff;fill-opacity:1;stroke:#000000;stroke-width:0.02696594"
     d="m 21.869826,24.166188 c -1.75806,0.934732 -3.516296,1.868311 -5.259201,2.829738 -0.125377,0.08743 0.01832,0.238344 0.133145,0.181178 0.116534,-0.04217 0.07976,0.171583 0.129017,0.24326 0.0671,0.14683 0.04716,0.359308 0.187833,0.459539 0.175567,0.01784 0.320055,-0.146209 0.481331,-0.202999 1.475642,-0.786151 2.948186,-1.578098 4.422256,-2.367191 0.113145,-0.140654 0.02553,-0.350524 0.05309,-0.519937 -0.01504,-0.199969 0.03193,-0.411744 -0.02697,-0.603363 -0.0417,-0.02268 -0.07297,-0.04088 -0.120504,-0.02023 z"
     id="path3020"
     inkscape:connector-curvature="0" />
  <path
     style="fill:#ffffff;fill-opacity:1;stroke:#000000;stroke-width:0.05393187"
     d="m 22.600669,28.647893 c -1.261931,0.887662 -2.455042,1.882804 -3.684222,2.819626 -0.07729,0.238531 0.261757,0.412415 0.387636,0.605048 0.628852,0.60974 1.380807,1.183812 2.255026,1.360095 0.508538,0.03012 1.037338,0.06607 1.535373,0 0.05515,-1.424335 0.0077,-2.866525 0.0236,-4.297696 0.101838,-0.347698 -0.242144,-0.474065 -0.517408,-0.487073 z"
     id="path3022"
     inkscape:connector-curvature="0" />
  <path
     style="fill:#ffffff;fill-opacity:1;stroke:#000000;stroke-width:0.05393187"
     d="m 26.71803,28.878789 c -0.0604,1.489377 -0.0042,2.996578 0.04719,4.491514 0.193102,0.214756 0.596322,0.04107 0.873023,0.09607 0.330865,0.0593 0.685094,2e-6 0.549431,-0.423028 -0.01459,-1.381156 0.02918,-2.774695 -0.0219,-4.148106 -0.341269,-0.118492 -0.778886,-0.01572 -1.156171,-0.05015 -0.0978,0.0086 -0.2048,-0.02494 -0.291569,0.03371 z"
     id="path3024"
     inkscape:connector-curvature="0" />
</svg>
