<?xml version="1.0" encoding="UTF-8" standalone="no"?>
<!-- Created with Inkscape (http://www.inkscape.org/) -->

<svg
   xmlns:dc="http://purl.org/dc/elements/1.1/"
   xmlns:cc="http://creativecommons.org/ns#"
   xmlns:rdf="http://www.w3.org/1999/02/22-rdf-syntax-ns#"
   xmlns:svg="http://www.w3.org/2000/svg"
   xmlns="http://www.w3.org/2000/svg"
   xmlns:sodipodi="http://sodipodi.sourceforge.net/DTD/sodipodi-0.dtd"
   xmlns:inkscape="http://www.inkscape.org/namespaces/inkscape"
   id="svg2"
   version="1.1"
   inkscape:version="0.48.5 r10040"
   width="36"
   height="36"
   sodipodi:docname="hammer.svg">
  <metadata
     id="metadata8">
    <rdf:RDF>
      <cc:Work
         rdf:about="">
        <dc:format>image/svg+xml</dc:format>
        <dc:type
           rdf:resource="http://purl.org/dc/dcmitype/StillImage" />
        <dc:title />
      </cc:Work>
    </rdf:RDF>
  </metadata>
  <defs
     id="defs6" />
  <sodipodi:namedview
     pagecolor="#ffffff"
     bordercolor="#666666"
     borderopacity="1"
     objecttolerance="10"
     gridtolerance="10"
     guidetolerance="10"
     inkscape:pageopacity="0"
     inkscape:pageshadow="2"
     inkscape:window-width="673"
     inkscape:window-height="709"
     id="namedview4"
     showgrid="false"
     inkscape:zoom="11.959618"
     inkscape:cx="24.719695"
     inkscape:cy="14.728288"
     inkscape:window-x="0"
     inkscape:window-y="29"
     inkscape:window-maximized="0"
     inkscape:current-layer="svg2" />
  <path
     style="fill:none;stroke:#1a1a1a;stroke-opacity:1"
     d="m 15.52885,22.504017 3.89633,0"
     id="path3060"
     inkscape:connector-curvature="0" />
  <path
     style="fill:none;stroke:#1a1a1a;stroke-opacity:1"
     d="m 19.485494,25.937818 -3.992929,0"
     id="path3062"
     inkscape:connector-curvature="0" />
  <path
     style="fill:none;stroke:#1a1a1a;stroke-opacity:1"
     d="m 15.173131,29.291879 4.072788,0"
     id="path3064"
     inkscape:connector-curvature="0" />
  <path
     style="fill:none;stroke:#000000;stroke-opacity:1"
     d="m 15.472382,19.539419 0,12.931297 c 0,0 2.202273,2.992833 4.037501,-0.0847 l 0,-12.903066 z"
     id="path2987"
     inkscape:connector-curvature="0" />
  <path
     style="fill:none;stroke:#000000;stroke-opacity:1"
     d="m 8.4702819,19.454716 17.9569981,0 0,-11.9995661 -17.9852323,0 z"
     id="path2989"
     inkscape:connector-curvature="0" />
  <path
     style="fill:none;stroke:#000000;stroke-opacity:1"
     d="M 8.3851513,16.794011 C 8.2254341,16.634293 4.3123635,13.639597 4.3123635,13.639597 L 8.4650099,9.7664552"
     id="path2993"
     inkscape:connector-curvature="0" />
  <path
     style="fill:none;stroke:#000000;stroke-opacity:1"
     d="m 26.57662,16.700485 c 0.159717,-0.159718 4.072788,-3.154414 4.072788,-3.154414 L 26.496761,9.6729294"
     id="path2993-7"
     inkscape:connector-curvature="0" />
  <path
     style="fill:none;stroke:#000000;stroke-opacity:1"
     d="m 14.376945,7.2637555 c 0.159718,-0.159717 3.154414,-4.072788 3.154414,-4.072788 l 3.873141,4.152647"
     id="path2993-4"
     inkscape:connector-curvature="0" />
  <rect
     style="fill:none;stroke:#000000;stroke-opacity:1"
     id="rect3026"
     width="8.4650097"
     height="6.3886867"
     x="13.296454"
     y="9.9261723"
     rx="2" />
  <rect
     style="fill:none;stroke:#000000;stroke-width:0.43256822;stroke-opacity:1"
     id="rect3026-6"
     width="3.661694"
     height="2.7635429"
     x="15.648071"
     y="11.67885"
     rx="0.86513644" />
  <path
     style="fill:#666666;fill-opacity:1;stroke:#000000;stroke-width:0.07985859;stroke-opacity:1"
     d="M 8.88338,7.9059864 C 8.836797,11.594045 8.87672,15.295608 8.863415,18.98886 c 0.3468511,0.235333 0.9395828,0.0293 1.377557,0.09682 5.230739,-0.01231 10.461478,-0.02462 15.692216,-0.03692 0.236102,-0.34685 0.03467,-0.939579 0.104469,-1.377551 0.01176,-3.234276 0.02352,-6.468552 0.03528,-9.7028271 -0.346851,-0.2356351 -0.939586,-0.031408 -1.37756,-0.099823 -5.244048,0 -10.488094,0 -15.7321418,0 l -0.072309,0.033895 -0.00755,0.00354 z m 8.210461,1.607154 c 1.071002,0.028005 2.160741,-0.018175 3.219523,0.068212 0.952428,0.3288412 1.867567,1.1744336 1.75916,2.2651556 -0.01,1.075228 0.05428,2.175222 -0.0299,3.234963 -0.387477,1.004809 -1.41169,1.664433 -2.480489,1.611221 -1.599471,0.02077 -3.212458,0.09333 -4.804158,-0.07713 -1.152592,-0.232434 -1.956161,-1.409518 -1.819278,-2.567952 0.05369,-0.97549 -0.129509,-1.992557 0.12977,-2.94229 0.34779,-0.881722 1.205401,-1.5509758 2.166164,-1.539773 0.618087,-0.052005 1.239295,-0.053138 1.859208,-0.052407 z"
     id="path3048"
     inkscape:connector-curvature="0" />
  <path
     style="fill:#666666;fill-opacity:1;stroke:#000000;stroke-width:0.07985859;stroke-opacity:1"
     d="m 7.9200859,10.835798 c -0.9905601,0.854104 -1.9612004,1.761583 -2.8549444,2.717688 0.066716,0.350283 0.53956,0.493061 0.760167,0.754761 0.6843512,0.536875 1.3611545,1.091196 2.0822994,1.576111 0.3115329,-0.07777 0.097066,-0.567742 0.1796819,-0.803577 0.00335,-1.405751 0.072572,-2.830754 -0.04492,-4.225018 -0.026652,-0.009 -0.088655,-0.02034 -0.1222834,-0.01996 z"
     id="path3050"
     inkscape:connector-curvature="0" />
  <path
     style="fill:#666666;fill-opacity:1;stroke:#000000;stroke-width:0.07985859;stroke-opacity:1"
     d="m 26.844075,10.698541 c -0.0291,1.698759 -0.0041,3.404514 -0.01248,5.105958 0.285521,0.241706 0.655237,-0.427005 0.964067,-0.54299 0.722002,-0.593165 1.529631,-1.11404 2.20532,-1.742962 -0.944242,-0.990661 -2.005225,-1.895621 -3.002183,-2.844962 -0.0622,-0.06079 -0.107892,-0.01421 -0.154726,0.02496 z"
     id="path3052"
     inkscape:connector-curvature="0" />
  <path
     style="fill:#666666;fill-opacity:1;stroke:#000000;stroke-width:0.07985859;stroke-opacity:1"
     d="m 17.523081,3.9280307 c -0.835025,0.9478719 -1.621883,1.9521806 -2.343351,2.9897057 0.10092,0.3088934 0.596712,0.090059 0.846002,0.1746906 1.485366,0.00637 2.993056,0.062433 4.464594,-0.019965 C 20.406274,6.6826576 19.932191,6.4234248 19.700687,6.0850362 19.012521,5.3607377 18.350304,4.6003938 17.617913,3.9255351 c -0.01558,0.068724 -0.06778,-0.017661 -0.09483,0.0025 z"
     id="path3054"
     inkscape:connector-curvature="0" />
  <path
     style="fill:#666666;fill-opacity:1;stroke:#000000;stroke-width:0.07985859;stroke-opacity:1"
     d="m 16.929132,11.784119 c -0.505406,-0.07651 -1.168615,0.168671 -1.16294,0.763648 -0.02567,0.573392 -0.179002,1.470871 0.506603,1.726941 0.82527,0.131989 1.723366,0.186305 2.528023,-0.05989 0.567045,-0.266737 0.360768,-1.023565 0.38931,-1.522304 0.04068,-0.432157 -0.239219,-0.873319 -0.706249,-0.868462 -0.515288,-0.05902 -1.037057,-0.04056 -1.554747,-0.03993 z"
     id="path3056"
     inkscape:connector-curvature="0" />
  <path
     style="fill:none;fill-opacity:1;stroke:#1a1a1a;stroke-width:0.07985858999999999;stroke-opacity:1"
     d="m 16.285273,10.34916 c -0.734927,0.05978 -1.668193,-0.16658 -2.16866,0.526567 -0.624303,0.575427 -0.344514,1.497614 -0.419258,2.243528 0.05755,0.620865 -0.107668,1.308233 0.154726,1.889154 0.290447,0.503507 0.793878,0.92716 1.412499,0.850993 1.65503,0.01922 3.321899,0.101635 4.971197,-0.03743 0.679399,-0.134727 1.110481,-0.787739 1.090569,-1.46241 0.01352,-1.067845 0.155199,-2.182562 -0.154726,-3.219299 -0.351829,-0.764095 -1.291607,-0.825084 -2.023913,-0.789386 -0.954088,-0.0093 -1.908338,-0.0098 -2.862434,-0.0017 z m 0.529063,1.242799 c 0.71414,0.05273 1.487065,-0.09339 2.166164,0.157222 0.57677,0.430647 0.412405,1.282691 0.384319,1.911615 -0.03673,0.544564 -0.563231,0.967712 -1.11802,0.875948 -0.716296,-0.04436 -1.495726,0.149082 -2.173651,-0.114796 -0.722062,-0.465436 -0.574486,-1.467197 -0.436726,-2.178642 0.14212,-0.49375 0.709276,-0.686344 1.177914,-0.651347 z"
     id="path3058"
     inkscape:connector-curvature="0" />
  <path
     style="fill:#ffffff;fill-opacity:1;stroke:#1a1a1a;stroke-width:0.03992929;stroke-opacity:1"
     d="m 17.493882,29.673502 c -0.520006,0.01447 -1.049573,-0.01506 -1.563731,0.02632 -0.13692,0.185263 -0.03018,0.489083 -0.06721,0.721091 0.0059,0.636753 -0.0323,1.282006 -5.64e-4,1.913461 0.456169,0.486646 1.029297,1.024881 1.742558,1.035087 0.678938,0.01951 1.173409,-0.574697 1.509743,-1.092339 0.01764,-0.835935 0.0025,-1.677089 0.0076,-2.515023 -0.11698,-0.209789 -0.454883,-0.04713 -0.660066,-0.09571 -0.322766,0.0024 -0.645533,0.0047 -0.9683,0.0071 z"
     id="path3080"
     inkscape:connector-curvature="0" />
  <path
     style="fill:#4d4d4d;fill-opacity:1;stroke:#1a1a1a;stroke-width:0.03992929000000000;stroke-opacity:1"
     d="m 17.493882,26.319442 c -0.520006,0.01447 -1.049573,-0.01506 -1.563731,0.02632 -0.136926,0.185264 -0.03039,0.489082 -0.06751,0.721089 0.006,0.590183 -0.03207,1.188817 -2.66e-4,1.773711 0.167543,0.142707 0.465917,0.02668 0.683184,0.06431 0.836801,-0.01048 1.682109,0.02091 2.513629,-0.01558 0.140447,-0.168212 0.0258,-0.465935 0.06306,-0.683184 -0.01069,-0.610494 0.02119,-1.229634 -0.01558,-1.834831 -0.168857,-0.14019 -0.466685,-0.02292 -0.684416,-0.05865 -0.309457,0.0023 -0.618915,0.0046 -0.928372,0.0068 z"
     id="path3082"
     inkscape:connector-curvature="0" />
  <path
     style="fill:#4d4d4d;fill-opacity:1;stroke:#1a1a1a;stroke-width:0.07985859;stroke-opacity:1"
     d="m 15.897927,22.913146 c -0.02062,0.863452 -0.05731,1.763126 0.01747,2.617864 1.049988,0.0218 2.135577,0.05634 3.176875,-0.01747 0.02062,-0.863452 0.05731,-1.763126 -0.01747,-2.617864 -1.048755,-0.02178 -2.137034,-0.05628 -3.176875,0.01747 z"
     id="path3084"
     inkscape:connector-curvature="0" />
  <path
     style="fill:#b3b3b3;fill-opacity:1;stroke:#1a1a1a;stroke-width:0.07985859;stroke-opacity:1"
     d="m 18.700464,19.868537 c -0.928913,0.105081 -1.885021,-0.0072 -2.802537,0.08984 -0.02032,0.703697 -0.05759,1.44374 0.01747,2.138713 1.049988,0.0218 2.135577,0.05634 3.176875,-0.01747 0.01945,-0.736806 0.05826,-1.51046 -0.01747,-2.238536 -0.120075,-0.05203 -0.251113,0.02546 -0.374338,0.02745 z"
     id="path3086"
     inkscape:connector-curvature="0" />
  <path
     style="fill:#b3b3b3;fill-opacity:1;stroke:#1a1a1a;stroke-width:0.07985859;stroke-opacity:1"
     d="m 17.949295,29.561373 c -0.686744,0.05723 -1.425334,-0.08827 -2.08381,0.122283 -0.262197,0.398436 -0.07537,0.960492 -0.146461,1.414986 0.08077,0.520776 -0.238052,1.222037 0.32381,1.542446 0.554814,0.616756 1.500289,1.080752 2.285789,0.598771 0.545019,-0.308366 0.972561,-0.883595 0.860975,-1.542269 -0.04404,-0.677464 0.106494,-1.403007 -0.09483,-2.053863 -0.295269,-0.204298 -0.804308,-0.01928 -1.145471,-0.08235 z"
     id="path3088"
     inkscape:connector-curvature="0" />
  <path
     style="fill:#ffffff;fill-opacity:1;stroke:#1a1a1a;stroke-width:0.08361471;stroke-opacity:1"
     d="m 16.032649,10.330204 c -0.68983,-0.01389 -1.49215,-0.03566 -1.956133,0.571265 -0.583129,0.637272 -0.280475,1.602371 -0.382466,2.38138 0.02621,0.82268 -0.118755,1.973402 0.778662,2.40131 0.868213,0.392971 1.874308,0.157967 2.79848,0.232553 1.025296,-0.05224 2.086995,0.111819 3.091132,-0.125422 0.822481,-0.293465 1.093123,-1.247317 1.023852,-2.043306 -0.0339,-1.018187 0.228847,-2.285835 -0.595327,-3.070256 -0.636121,-0.504444 -1.535374,-0.276757 -2.28634,-0.350137 -0.823953,6.77e-4 -1.647914,-0.0019 -2.47186,0.0026 z m 1.698424,1.246382 c 0.584634,-0.01809 1.424115,0.0025 1.609583,0.695047 0.0045,0.632791 0.160478,1.362335 -0.175068,1.930978 -0.525578,0.493946 -1.343168,0.265276 -1.996301,0.342297 -0.575443,0.03825 -1.377709,-0.0081 -1.541647,-0.687208 -0.06672,-0.64783 -0.214637,-1.458405 0.222102,-2.011979 0.528779,-0.36023 1.278212,-0.208817 1.881331,-0.269135 z"
     id="path3002"
     inkscape:connector-curvature="0" />
</svg>
