<?xml version="1.0" encoding="UTF-8" standalone="no"?>
<!-- Created with Inkscape (http://www.inkscape.org/) -->

<svg
   xmlns:dc="http://purl.org/dc/elements/1.1/"
   xmlns:cc="http://creativecommons.org/ns#"
   xmlns:rdf="http://www.w3.org/1999/02/22-rdf-syntax-ns#"
   xmlns:svg="http://www.w3.org/2000/svg"
   xmlns="http://www.w3.org/2000/svg"
   xmlns:sodipodi="http://sodipodi.sourceforge.net/DTD/sodipodi-0.dtd"
   xmlns:inkscape="http://www.inkscape.org/namespaces/inkscape"
   id="svg2"
   version="1.1"
   inkscape:version="0.48.5 r10040"
   width="36"
   height="36"
   sodipodi:docname="Long_Sword_Icon_White.png.2016_07_05_18_23_12.0.svg">
  <metadata
     id="metadata8">
    <rdf:RDF>
      <cc:Work
         rdf:about="">
        <dc:format>image/svg+xml</dc:format>
        <dc:type
           rdf:resource="http://purl.org/dc/dcmitype/StillImage" />
      </cc:Work>
    </rdf:RDF>
  </metadata>
  <defs
     id="defs6" />
  <sodipodi:namedview
     pagecolor="#ffffff"
     bordercolor="#666666"
     borderopacity="1"
     objecttolerance="10"
     gridtolerance="10"
     guidetolerance="10"
     inkscape:pageopacity="0"
     inkscape:pageshadow="2"
     inkscape:window-width="1025"
     inkscape:window-height="640"
     id="namedview4"
     showgrid="false"
     inkscape:zoom="6.5555556"
     inkscape:cx="8.0468064"
     inkscape:cy="27.684748"
     inkscape:window-x="86"
     inkscape:window-y="63"
     inkscape:window-maximized="0"
     inkscape:current-layer="svg2" />
  <path
     style="fill:#ffffff;fill-opacity:1;stroke:#808080;stroke-width:0.07627118"
     d="m 22.76649,15.510452 c -4.244274,3.995163 -8.43638,8.059149 -12.606197,12.134269 -0.5161664,0.679961 -1.3927375,0.964217 -2.1927885,1.143275 -1.6185364,0.04965 -3.2479519,-0.03559 -4.859913,0.112816 -0.3205077,0.139177 0.031405,0.547755 0.055382,0.77454 0.3838093,1.033989 0.863399,2.296934 2.0450027,2.611186 1.0598361,0.427251 2.2053046,0.519722 3.3363205,0.423067 0.9081298,-0.08472 1.8690953,-0.113907 2.7076273,-0.498146 1.410924,-0.940252 2.545542,-2.236331 3.798266,-3.374013 3.672564,-3.558368 7.401581,-7.079177 11.010262,-10.690871 -0.02489,-0.329148 -0.500621,-0.484804 -0.714252,-0.732532 -0.836635,-0.642703 -1.635427,-1.36852 -2.52489,-1.920275 l -0.05482,0.01668 z"
     id="path3021"
     inkscape:connector-curvature="0" />
  <path
     style="fill:#808080;stroke:#808080"
     d="m 2.9745763,29.841102 c 0,0 6.8834746,1.048729 8.1991527,-1.334746 l 12.88983,-12.527542 -1.067796,-0.648306 -13.1186443,12.584746 -1.7542373,0.877119 -2.5932204,0.03813 -2.9745763,0 z"
     id="path3019"
     inkscape:connector-curvature="0" />
  <path
     style="fill:none;stroke:#000000"
     d="m 29.059322,13.995762 3.012711,2.288136 -3.355932,3.508474 -6.063559,-4.957627 -2.572967,-2.22426 2.130309,-2.022445 2.885355,0.0809"
     id="path3027"
     inkscape:connector-curvature="0" />
  <path
     style="fill:none;stroke:#000000"
     d="m 25.703389,10.002695 -8.04661,0 0,-2.2881355 9.838983,0"
     id="path3029"
     inkscape:connector-curvature="0" />
  <path
     style="fill:none;stroke:#000000"
     d="M 26.642345,18.202482 11.865012,32.440496 c 0,0 -3.8830948,1.564025 -7.172939,0.05393 0,0 -1.1865012,0.05393 -2.3730025,-4.044888 l 4.3145499,0 c 0,0 2.5887299,0.161795 3.3437761,-1.240433 L 22.705319,14.966569"
     id="path3031"
     inkscape:connector-curvature="0" />
  <path
     style="fill:none;stroke:#000000"
     d="m 17.65678,7.6271186 c 0,0 -0.61017,-2.0974576 -4.194915,-0.9915254"
     id="path3033"
     inkscape:connector-curvature="0" />
  <path
     style="fill:none;stroke:#000000"
     d="m 17.694915,10.334746 c 0,0 0,2.326271 -4.385593,1.334745"
     id="path3035"
     inkscape:connector-curvature="0" />
  <path
     style="fill:none;stroke:#000000;stroke-width:1px;stroke-linecap:butt;stroke-linejoin:miter;stroke-opacity:1"
     d="m 13.84322,6.2542373 0.114407,5.4533897"
     id="path3037"
     inkscape:connector-type="polyline"
     inkscape:connector-curvature="0" />
  <path
     style="fill:#ffffff;fill-opacity:1;stroke:#000000"
     d="m 13.578188,11.83783 -7.7796614,0 0,-2.1737286 7.5127124,0 -7.5127124,-0.8008475 0,-4.3474576 L 12.624798,7.9479997 7.6290351,3.5242709 9.3451368,1.6174912 13.463781,6.3844404"
     id="path2989"
     inkscape:connector-curvature="0" />
  <path
     style="fill:#808080;fill-opacity:1;stroke:#808080;stroke-width:0.10786375;stroke-opacity:1"
     d="M 9.2090831,2.334028 C 8.8885575,2.7291062 8.3714775,3.0985894 8.2517924,3.5778318 9.7669239,4.9131517 11.281543,6.2490527 12.795553,7.5856441 12.525967,8.5136768 11.904929,8.0869641 11.295416,7.7206318 9.6550499,6.9031908 8.0511188,5.9970685 6.374289,5.2699443 6.0069545,5.5634092 6.2651107,6.2202641 6.1806781,6.6350783 c 0.072386,0.6243726 -0.096954,1.3475172 0.1261961,1.9112273 2.285632,0.2679242 4.6357098,0.41994 6.8763138,0.7685292 0.07429,0.425998 0.01368,0.9082072 -0.562914,0.7011142 -2.119073,0 -4.2381463,0 -6.3572195,0 -0.1889739,0.376996 -0.1196275,0.951066 -0.013483,1.378634 1.0843801,0.198196 2.2536034,0.06225 3.3673713,0.117976 1.3381852,0 2.6763692,0 4.0145542,0 0.223594,-0.608866 -0.01876,-1.39561 0.0266,-2.0729421 -0.0772,-1.0214361 0.0032,-2.0681735 -0.117613,-3.0775521 -0.19193,-0.2314843 -0.39777,0.3213624 -0.576397,-0.04382 C 11.686019,5.0487624 10.639271,3.4929365 9.2832394,2.3070621 l -0.00674,0 -0.067415,0.026966 z"
     id="path3028"
     inkscape:connector-curvature="0" />
  <path
     style="fill:#808080;fill-opacity:1;stroke:#808080;stroke-width:0.10786375;stroke-opacity:1"
     d="m 15.171926,6.7025097 c -0.427517,0.033903 -1.133722,-0.00974 -0.920213,0.6336995 0.0056,1.3622262 -0.02945,2.7304668 0.138201,4.0853398 0.716381,0.186821 1.617105,0.108754 2.325812,-0.219099 0.77384,-0.372426 0.442134,-1.3998829 0.542689,-2.0797475 C 17.233248,8.3642562 17.411092,7.22969 16.489886,6.9249787 16.075651,6.7538356 15.61867,6.6877406 15.171926,6.7025097 z"
     id="path3030"
     inkscape:connector-curvature="0" />
  <path
     style="fill:#808080;fill-opacity:1;stroke:#808080;stroke-width:0.10786375;stroke-opacity:1"
     d="m 18.026944,8.175524 c 0.08524,0.4422574 -0.158594,1.0765807 0.161796,1.4325654 2.342151,0.091276 4.708035,0.1306839 7.048222,-0.016854 C 25.774441,9.3928567 26.044778,8.7364584 26.36279,8.3002415 26.084911,7.935614 25.434138,8.1932178 25.031405,8.0896106 22.730419,8.0612431 20.429172,8.079673 18.128067,8.0744017 l -0.07627,0.076271 -0.02485,0.024851 z"
     id="path3032"
     inkscape:connector-curvature="0" />
  <path
     style="fill:#666666;fill-opacity:1;stroke:#333333;stroke-width:0.07627117999999999;stroke-opacity:1"
     d="m 29.933687,4.9028428 c -1.416198,1.9112384 -2.901494,3.7752797 -4.275953,5.7131882 -0.231139,0.380792 0.392696,0.532658 0.583325,0.762734 0.828558,0.600067 1.608046,1.304742 2.469906,1.837637 1.444656,-1.748232 2.83924,-3.5668812 4.209216,-5.3771185 0.10241,-0.2349236 0.572673,-0.5748395 0.283633,-0.8222987 -1.063735,-0.7252109 -2.120078,-1.505306 -3.222457,-2.1498941 l -0.04767,0.035752 z"
     id="path2998"
     inkscape:connector-curvature="0" />
  <path
     style="fill:#333333;fill-opacity:1;stroke:#333333;stroke-opacity:1"
     d="m 29.716461,4.9622069 3.559504,2.5347985"
     id="path3002-8"
     inkscape:connector-curvature="0" />
  <path
     style="fill:#333333;fill-opacity:1;stroke:#333333;stroke-opacity:1"
     d="M 26.372686,9.4385525 29.93219,11.973351"
     id="path3002"
     inkscape:connector-curvature="0" />
  <path
     style="fill:#333333;fill-opacity:1;stroke:#333333;stroke-opacity:1"
     d="m 27.505255,7.7936301 3.559504,2.5347989"
     id="path3002-1"
     inkscape:connector-curvature="0" />
  <path
     style="fill:#333333;fill-opacity:1;stroke:#333333;stroke-opacity:1"
     d="m 28.637824,6.3105037 3.559504,2.534798"
     id="path3002-5"
     inkscape:connector-curvature="0" />
  <path
     style="fill:none;stroke:#000000"
     d="m 29.898305,4.309322 -4.957627,6.559322 3.851695,2.936441 5.224576,-6.7118647 z"
     id="path3025"
     inkscape:connector-curvature="0" />
  <path
     style="fill:#ffffff;fill-opacity:1;stroke:#808080;stroke-width:0.10786375;stroke-opacity:1"
     d="m 22.354977,11.013689 c -0.51972,0.53234 -1.21776,0.949825 -1.607844,1.584249 0.902438,1.013258 2.080392,1.804827 3.099822,2.716017 1.601358,1.283768 3.137997,2.690854 4.818051,3.850188 0.947233,-0.738521 1.760405,-1.682984 2.531428,-2.605583 0.38611,-0.480985 -0.480176,-0.718416 -0.712782,-1.009145 -2.020819,-1.520516 -4.023654,-3.079659 -6.065781,-4.562692 -0.684943,0.02008 -1.386842,-0.03815 -2.062894,0.02697 z"
     id="path3036"
     inkscape:connector-curvature="0" />
</svg>
