<?xml version="1.0" encoding="UTF-8" standalone="no"?>
<!-- Created with Inkscape (http://www.inkscape.org/) -->

<svg
   xmlns:dc="http://purl.org/dc/elements/1.1/"
   xmlns:cc="http://creativecommons.org/ns#"
   xmlns:rdf="http://www.w3.org/1999/02/22-rdf-syntax-ns#"
   xmlns:svg="http://www.w3.org/2000/svg"
   xmlns="http://www.w3.org/2000/svg"
   xmlns:sodipodi="http://sodipodi.sourceforge.net/DTD/sodipodi-0.dtd"
   xmlns:inkscape="http://www.inkscape.org/namespaces/inkscape"
   id="svg2"
   version="1.1"
   inkscape:version="0.48.5 r10040"
   width="36"
   height="35"
   sodipodi:docname="Sword_and_Shield_Icon_White.png">
  <metadata
     id="metadata8">
    <rdf:RDF>
      <cc:Work
         rdf:about="">
        <dc:format>image/svg+xml</dc:format>
        <dc:type
           rdf:resource="http://purl.org/dc/dcmitype/StillImage" />
        <dc:title></dc:title>
      </cc:Work>
    </rdf:RDF>
  </metadata>
  <defs
     id="defs6" />
  <sodipodi:namedview
     pagecolor="#ffffff"
     bordercolor="#666666"
     borderopacity="1"
     objecttolerance="10"
     gridtolerance="10"
     guidetolerance="10"
     inkscape:pageopacity="0"
     inkscape:pageshadow="2"
     inkscape:window-width="1366"
     inkscape:window-height="714"
     id="namedview4"
     showgrid="false"
     inkscape:zoom="9.53584"
     inkscape:cx="45.911492"
     inkscape:cy="10.39449"
     inkscape:window-x="0"
     inkscape:window-y="29"
     inkscape:window-maximized="1"
     inkscape:current-layer="svg2" />
  <path
     sodipodi:type="arc"
     style="fill:none;stroke:#000000;stroke-opacity:1"
     id="path2989"
     sodipodi:cx="23.432203"
     sodipodi:cy="16.387712"
     sodipodi:rx="7.8601694"
     sodipodi:ry="7.8601694"
     d="m 31.292373,16.387712 a 7.8601694,7.8601694 0 1 1 -15.720339,0 7.8601694,7.8601694 0 1 1 15.720339,0 z"
     transform="translate(2.0021186,3.411017)" />
  <path
     style="fill:none;stroke:#000000;stroke-width:1px;stroke-linecap:butt;stroke-linejoin:miter;stroke-opacity:1"
     d="m 25.508475,27.436441 0,-2.224577"
     id="path2991"
     inkscape:connector-curvature="0" />
  <path
     style="fill:none;stroke:#000000;stroke-width:1px;stroke-linecap:butt;stroke-linejoin:miter;stroke-opacity:1"
     d="m 25.434322,12.012712 0,2.706568"
     id="path2993"
     inkscape:connector-curvature="0" />
  <path
     style="fill:#808080;stroke:#1a1a1a;stroke-opacity:1"
     d="m 22.431144,17.5 0,5.042373 6.080509,0 0,-5.116526 z"
     id="path2997"
     inkscape:connector-curvature="0" />
  <path
     style="fill:#808080;fill-opacity:1;stroke:#000000;stroke-opacity:1"
     d="m 33.479873,19.761653 -2.372881,0"
     id="path2999"
     inkscape:connector-curvature="0" />
  <path
     style="fill:#f9f9f9;fill-opacity:1;stroke:#000000;stroke-opacity:1"
     d="m 17.611229,19.835805 2.1875,0"
     id="path3001"
     inkscape:connector-curvature="0" />
  <path
     style="fill:#ffffff;fill-opacity:1;stroke:#333333;stroke-width:0.07415254;stroke-opacity:1"
     d="M 11.130885,4.6614628 C 10.483014,4.685239 9.7316076,4.7140377 9.3311748,5.3092837 8.8510109,5.8658592 8.3501411,6.4204956 7.9214701,7.0111715 c -0.00154,4.9558615 -0.00309,9.9117235 -0.00463,14.8675845 0.3190609,0.231997 0.8772038,0.03366 1.2860831,0.09964 0.9628158,-0.0245 1.9475658,0.04914 2.8965838,-0.03708 0.04866,-4.759077 0.007,-9.532819 0.02086,-14.2975366 -0.02459,-0.961249 0.04927,-1.9445044 -0.03708,-2.8919492 -0.306573,-0.097911 -0.632694,-0.1060934 -0.952397,-0.090373 z"
     id="path3031"
     inkscape:connector-curvature="0" />
  <path
     style="fill:none;stroke:#b3b3b3;stroke-opacity:1"
     d="m 8.4418363,5.9516939 0,16.0447321"
     id="path3015"
     inkscape:connector-curvature="0" />
  <path
     style="fill:none;stroke:#333333;stroke-opacity:1"
     d="m 3.6703636,23.30727 11.5354284,0"
     id="path3019"
     inkscape:connector-curvature="0" />
  <path
     style="fill:none;stroke:#333333;stroke-opacity:1"
     d="m 4.0374,25.509488 11.220826,0"
     id="path3017"
     inkscape:connector-curvature="0" />
  <path
     style="fill:#333333;fill-opacity:1;stroke:#1a1a1a;stroke-width:0.07415254000000000;stroke-opacity:1"
     d="m 10.004693,26.689402 c -0.6732624,0.03406 -1.3722636,-0.03835 -2.0299258,0.06025 -0.059384,1.409639 -0.032058,2.834439 -0.060249,4.249868 0.319061,0.231997 0.8772038,0.03366 1.2860832,0.09964 1.0131296,-0.02402 2.0479316,0.04892 3.0472056,-0.03708 0.02198,-1.349698 0.06444,-2.720014 -0.03476,-4.071438 -0.08903,-0.44937 -0.718713,-0.238032 -1.031183,-0.305879 -0.392403,-6.54e-4 -0.784791,1.36e-4 -1.177172,0.0046 z"
     id="path3035"
     inkscape:connector-curvature="0" />
  <path
     style="fill:none;stroke:#1a1a1a;stroke-opacity:1"
     d="m 7.6553298,28.629297 4.9549912,0"
     id="path3037"
     inkscape:connector-curvature="0" />
  <path
     style="fill:none;stroke:#000000;stroke-opacity:1"
     d="m 7.5635593,26.509534 0,5.005297 5.0794487,0 0,-5.190678 -8.1197029,0 c 0,0 -2.595339,-2.224577 0,-3.930085 l 10.0105929,0 c 0,0 2.929026,1.965042 -0.07415,4.041313 l -2.447036,0"
     id="path3007"
     inkscape:connector-curvature="0" />
  <path
     style="fill:none;stroke:#000000;stroke-opacity:1"
     d="m 12.494703,22.060381 0,-17.5741522 c 0,0 -1.297669,-0.6302966 -3.1514827,0.1483051 -0.1112288,0.2224576 -1.779661,2.1504237 -1.779661,2.1504237 l 0,15.3125004"
     id="path3009"
     inkscape:connector-curvature="0" />
  <path
     style="fill:#ffffff;fill-opacity:1;stroke:#333333;stroke-width:0.02621688;stroke-opacity:1"
     d="m 9.5231717,23.691354 c -1.8676797,0.0022 -3.7353596,0.0044 -5.6030394,0.0066 -0.1568415,0.05069 -0.1159691,0.263563 -0.1548435,0.39735 -0.00543,0.339565 0.1143596,0.674346 0.2537344,0.976999 0.1340913,0.09666 0.3344384,0.02027 0.4950853,0.04464 3.5540262,0 7.1080525,0 10.6620785,0 0.150077,-0.05471 0.156287,-0.260063 0.203181,-0.395711 0.06644,-0.339962 0.02854,-0.730856 -0.190984,-1.00648 -0.187209,-0.06782 -0.41112,-0.01091 -0.612727,-0.02926 -1.684162,0.002 -3.368323,0.0039 -5.0524853,0.0059 z"
     id="path3021"
     inkscape:connector-curvature="0" />
  <path
     style="fill:#ffffff;fill-opacity:1;stroke:#333333;stroke-width:0.07415254;stroke-opacity:1"
     d="m 25.815405,12.37101 c -0.06631,0.727451 -0.0079,1.478922 -0.02781,2.215307 -0.447459,0.01954 -0.967762,0.111919 -0.764698,-0.519068 -0.02627,-0.56462 0.05185,-1.152576 -0.03708,-1.703191 -2.625252,0.07948 -5.100262,1.804765 -6.245035,4.150225 -0.429785,0.90591 -0.757949,1.91187 -0.729939,2.915122 0.554278,0.06709 1.132956,0.0075 1.69624,0.02781 0.01954,0.44746 0.111918,0.967763 -0.519068,0.764698 -0.380313,0.06644 -0.930441,-0.140408 -1.2042,0.10846 0.187513,2.806862 2.095109,5.433758 4.741896,6.414631 0.740817,0.289798 1.553244,0.54877 2.348162,0.463469 0.05392,-0.623068 0.0078,-1.263455 0.02317,-1.893207 0.447459,-0.01954 0.967762,-0.111918 0.764698,0.519068 0.02645,0.465711 -0.05228,0.954931 0.03708,1.406581 2.988735,-0.116518 5.739351,-2.299464 6.629701,-5.148967 0.165861,-0.619584 0.417812,-1.283448 0.317465,-1.923332 -0.524681,-0.04852 -1.063963,-0.0071 -1.594279,-0.02086 -0.01954,-0.447459 -0.111919,-0.967763 0.519068,-0.764698 0.336375,-0.07581 0.92066,0.178237 1.100701,-0.227092 -0.199801,-2.419238 -1.660469,-4.741075 -3.832697,-5.873208 -0.98364,-0.52723 -2.102508,-0.940121 -3.223381,-0.91175 z m 3.0866,7.598318 c 0,0.974025 0,1.948049 0,2.922074 -2.281735,0 -4.563471,0 -6.845207,0 0,-1.907883 0,-3.815766 0,-5.723649 2.278626,-0.137949 4.563633,-0.08966 6.845207,-0.120498 0,0.974024 0,1.948049 0,2.922073 z"
     id="path3033"
     inkscape:connector-curvature="0" />
  <path
     style="fill:#cccccc;fill-opacity:1;stroke:#1a1a1a;stroke-width:0.14830509;stroke-opacity:1"
     d="m 24.521296,12.239778 c -3.079306,0.432877 -5.742176,2.817228 -6.448329,5.852894 -0.08095,0.512288 -0.485098,1.668544 0.409532,1.474305 0.380206,-0.01886 1.392473,-0.155836 1.024232,0.49126 -0.559419,0.219229 -1.803923,-0.36856 -1.571107,0.648835 0.292797,2.685377 2.202105,5.12115 4.713321,6.11295 0.810486,0.319543 1.790799,0.602408 2.609242,0.393935 0.118785,-0.516592 -0.199469,-1.295196 0.125133,-1.710143 0.721406,-0.181222 0.291561,0.914523 0.412473,1.279132 -0.240876,1.007092 0.958576,0.396406 1.501589,0.361493 2.955197,-0.820577 5.413904,-3.476332 5.668035,-6.581038 -0.06688,-0.779204 -1.154196,-0.44332 -1.608183,-0.672007 -0.0663,-0.721138 0.898618,-0.156651 1.293035,-0.407839 0.646215,-0.406379 0.07943,-1.356074 0,-1.923332 -0.947129,-2.920567 -3.78816,-5.274847 -6.900821,-5.31581 -0.31128,0.614239 0.101199,1.611722 -0.199285,2.210673 -0.673463,0.01313 -0.267898,-1.024076 -0.431012,-1.445975 -0.0022,-0.372147 -0.117535,-0.846201 -0.597855,-0.769333 z m 2.067002,4.954317 c 0.70086,0.221412 2.387343,-0.542798 2.173597,0.593221 0,1.662252 0,3.324505 0,4.986758 -2.206038,0 -4.412076,0 -6.618115,0 0,-1.799744 0,-3.599488 0,-5.399232 1.477273,-0.142742 2.961224,-0.176938 4.444518,-0.180747 z"
     id="path3041"
     inkscape:connector-curvature="0" />
</svg>
